<svg xmlns="http://www.w3.org/2000/svg" xmlns:svg="http://www.w3.org/2000/svg" id="svg7" width="1024" height="1024" version="1.1" viewBox="0 0 1024 1024"><metadata id="metadata13"/><circle style="fill:#000;stroke-width:.240918;stop-color:#000" id="path838" cx="207.58" cy="688.352" r="93.2"/><circle style="fill:#fff;stroke-width:.262497;stop-color:#000" id="path840" cx="253.518" cy="726.615" r="116.756"/><circle style="fill:#000;stroke-width:.240918;stop-color:#000" id="path838-5" cx="751.629" cy="687.734" r="93.2"/><circle style="fill:#fff;stroke-width:.262497;stop-color:#000" id="path840-9" cx="797.567" cy="725.996" r="116.756"/><path id="path5" d="M 546.204,282.21 682.737,418.743 614.47,555.276 H 409.67 L 341.403,418.743 H 141.868 c -46.377,0 -73.532,32.261 -73.532,72.466 V 691.81 h 10.4 c 2.415,-68.267 79.123,-136.533 162.568,-136.533 83.445,0 168.365,68.267 168.365,136.533 h 204.8 c 0,-68.267 86.052,-136.558 166.103,-136.533 80.051,0.025 160.254,68.267 164.946,136.533 h 10.284 V 471.558 c 0,0 -0.04,-17.016 -20.8,-33.742 -20.76,-16.726 -38.365,-19.073 -38.365,-19.073 H 751.001 L 614.468,282.21 Z m -393.6,443.628 c 0,-56.409 45.956,-102.295 102.453,-102.295 56.707,0 102.347,45.885 102.347,102.295 0,56.62 -45.64,102.505 -102.347,102.505 -56.497,0 -102.453,-45.885 -102.453,-102.505 z m 544.063,0 c 0,-56.409 45.956,-102.295 102.453,-102.295 56.707,0 102.347,45.885 102.347,102.295 0,56.62 -45.64,102.505 -102.347,102.505 -56.497,0 -102.453,-45.885 -102.453,-102.505 z"/></svg>