<svg xmlns="http://www.w3.org/2000/svg" xmlns:svg="http://www.w3.org/2000/svg" id="svg4460" width="24" height="24" version="1.1"><metadata id="metadata4465"/><g id="layer1" transform="translate(0,-1028.3622)"><path style="fill:none;stroke:#474747;stroke-width:1.9586767;stroke-miterlimit:4;stroke-opacity:1;stroke-dasharray:none" id="path3037" d="m -6.2755728,15.558912 c 0,2.562816 -2.0775727,4.640389 -4.6403882,4.640389 -2.562816,0 -4.640389,-2.077573 -4.640389,-4.640389 0,-2.562816 2.077573,-4.640388 4.640389,-4.640388 2.5628155,0 4.6403882,2.077572 4.6403882,4.640388 z" transform="matrix(0.72957423,0,0,0.72957423,26.265996,1032.3096)"/><path style="fill:none;stroke:#474747;stroke-width:1.9586767;stroke-miterlimit:4;stroke-opacity:1;stroke-dasharray:none" id="path3037-1" d="m -6.2755728,15.558912 c 0,2.562816 -2.0775727,4.640389 -4.6403882,4.640389 -2.562816,0 -4.640389,-2.077573 -4.640389,-4.640389 0,-2.562816 2.077573,-4.640388 4.640389,-4.640388 2.5628155,0 4.6403882,2.077572 4.6403882,4.640388 z" transform="matrix(0.72957423,0,0,0.72957423,14.674252,1032.3098)"/><path style="fill:#474747;fill-opacity:1;stroke:none" id="path3037-1-4" d="m -6.2755728,15.558912 c 0,2.562816 -2.0775727,4.640389 -4.6403882,4.640389 -2.562816,0 -4.640389,-2.077573 -4.640389,-4.640389 0,-2.562816 2.077573,-4.640388 4.640389,-4.640388 2.5628155,0 4.6403882,2.077572 4.6403882,4.640388 z" transform="matrix(0.26624926,0,0,0.26624926,20.312579,1031.694)"/><path style="fill:none;stroke:#474747;stroke-width:1.37899995;stroke-linecap:round;stroke-linejoin:round;stroke-miterlimit:4;stroke-opacity:1;stroke-dasharray:none" id="path3843" d="m 11.485047,1039.549 c 0.67861,0.5912 0.975723,3.9366 0.127199,5.8322 0.265663,-1.0176 0.437653,-2.0186 0.590842,-2.9368 -0.25518,-1.0637 -1.386647,-3.3262 -0.718041,-2.8954 z"/><path style="fill:none;stroke:#474747;stroke-width:2.51380324;stroke-linecap:round;stroke-linejoin:round;stroke-miterlimit:4;stroke-opacity:1;stroke-dasharray:none" id="path3845" d="m 11.23918,1038.8175 3.952214,-1.3002 0,0"/><path style="fill:none;stroke:#474747;stroke-width:1.31499171;stroke-linecap:round;stroke-linejoin:round;stroke-miterlimit:4;stroke-opacity:1;stroke-dasharray:none" id="path3847" d="m 16.075803,1037.6964 1.167178,3.9583"/><path style="fill:#4d4d4d;stroke:#474747;stroke-width:.80000001;stroke-linecap:round;stroke-linejoin:round;stroke-miterlimit:4;stroke-opacity:1;stroke-dasharray:none" id="path2997" d="m 11.823224,1034.688 -6.8125004,-0.375"/><path style="fill:#474747;fill-opacity:1;stroke:#474747;stroke-width:.80000001;stroke-linecap:round;stroke-linejoin:round;stroke-miterlimit:4;stroke-opacity:1;stroke-dasharray:none" id="path2997-1" d="m 6.9116126,1037.9569 -3.6187195,-0.2134"/><path style="fill:none;stroke:#474747;stroke-width:.80000001;stroke-linecap:round;stroke-linejoin:round;stroke-miterlimit:4;stroke-opacity:1;stroke-dasharray:none" id="path2997-4" d="m 8.8901659,1036.181 -5.6035544,-0.3384"/></g></svg>