<svg xmlns="http://www.w3.org/2000/svg" xmlns:svg="http://www.w3.org/2000/svg" id="svg4460" width="24" height="24" version="1.1"><metadata id="metadata4465"/><g id="layer1" transform="translate(0,-1028.3622)"><path style="fill:#474747;fill-opacity:1;stroke:none" id="path3936" d="m 5.5476956,1041.927 c 0.9049321,1.8041 1.2025935,2.4201 3.1804539,2.4951 l 0.9807671,0 5.1026424,0.079 c 3.577593,-2.625 1.439386,-3.3902 1.277174,-7.8663 0.984853,0.2373 1.249445,1.4466 1.897961,1.9404 0.462617,0.3523 1.049335,1.2976 1.034357,2.3203 -0.300557,1.3472 -2.837951,4.7972 -3.327828,5.2325 -0.265438,0.3818 -2.747642,0.4632 -5.553595,0.4187 -2.8059537,-0.044 -5.9356567,-0.2153 -8.1210917,-0.5872 0.5167088,-1.9502 1.3694676,-3.4697 3.5291593,-4.032 z"/><circle style="fill:none;stroke:#474747;stroke-width:.95706934;stroke-miterlimit:4;stroke-dasharray:none;stroke-opacity:1" id="path3037" cx="19.143" cy="1045.458" r="2.267"/><path style="fill:none;stroke:#474747;stroke-width:1.1677624;stroke-linecap:round;stroke-linejoin:round;stroke-miterlimit:4;stroke-dasharray:none;stroke-opacity:1" id="path3847" d="m 17.614015,1042.7789 1.5232,2.7304"/><path style="fill:#474747;fill-opacity:1;stroke:none" id="path3930" d="m 5.1826721,1043.1574 c -1.3832608,-1.0722 -1.4383197,-3.2277 -1.1060412,-3.7392 0.026329,-0.04 4.8106038,0.4519 7.1307321,0.089 2.374233,0.3827 -2.7420364,3.905 0.167047,5.138 -2.7092656,0.076 -4.184069,0.9999 -6.1917419,-1.4885 z"/><circle style="fill:none;stroke:#474747;stroke-width:.95706934;stroke-miterlimit:4;stroke-dasharray:none;stroke-opacity:1" id="path3037-6" cx="5.436" cy="1045.479" r="2.267"/><path style="fill:#474747;fill-opacity:1;stroke:none" id="path3936-6" d="m 15.644523,1044.8697 c 0.659887,-1.6488 1.00795,-1.608 2.641645,-3.0339 2.07839,-0.3042 3.533041,1.5709 3.41628,1.7948 -0.750549,0.5807 -2.606379,-2.0074 -5.292283,0.8859 z"/><path style="fill:#474747;fill-opacity:1;fill-rule:evenodd;stroke:none;stroke-width:1px;stroke-linecap:butt;stroke-linejoin:miter;stroke-opacity:1" id="path4204" d="m 16.679689,1037.4716 c 0,0 -1.949882,0.3982 -1.71875,0.8906 0.195852,0.4159 0.9428,-0.1261 1.71875,-0.8906 z"/><path style="fill:#474747;fill-opacity:1;stroke:none;stroke-width:1.70000005;stroke-linecap:round;stroke-linejoin:round;stroke-miterlimit:4;stroke-dasharray:none;stroke-opacity:1" id="path4206" d="m 18.187502,1037.9085 c -0.331473,0.054 -0.550884,0.048 -0.930568,0.048 -0.379684,0 -0.665387,-0.2919 -0.665403,-0.6112 1.6e-5,-0.3193 0.241525,-0.766 0.621209,-0.766 0.189842,0 0.488771,-0.054 0.939116,0.092 -0.115636,0.3568 -0.119042,0.7905 0.03565,1.2375 z"/></g></svg>