<svg xmlns="http://www.w3.org/2000/svg" xmlns:svg="http://www.w3.org/2000/svg" id="svg4460" width="24" height="24" version="1.1"><metadata id="metadata4465"/><g id="layer1" transform="translate(0,-1028.3622)"><rect style="fill:#474747;fill-opacity:1;stroke:#474747;stroke-width:1.10638154;stroke-linecap:round;stroke-linejoin:round;stroke-miterlimit:4;stroke-opacity:1;stroke-dasharray:none" id="rect3819" width="11.389" height="8.319" x="9.603" y="1036.004" ry=".406"/><rect style="fill:#474747;fill-opacity:1;stroke:none" id="rect3841-9" width="5.967" height="3.063" x="4.027" y="1040.379"/><rect style="fill:#474747;fill-opacity:1;stroke:none" id="rect3841" width="9.085" height="3.505" x="3.216" y="1041.373"/><path style="fill:none;stroke:#474747;stroke-width:1.00072384px;stroke-linecap:round;stroke-linejoin:round;stroke-opacity:1" id="path3839" d="m 5.8770049,1037.2051 c -3.4317547,6.8227 -2.9215641,4.6267 -2.9525005,7.2023 l 3.1294053,-0.016 0.6633925,-1.1278 0.7960708,-0.4862 0.8845231,-0.177 0.9729758,0.1325 0.1326781,-5.4838 c -0.5706491,-0.018 -3.0345797,-0.045 -3.6265451,-0.044 z"/><path style="fill:#fff;fill-opacity:1;stroke:#474747;stroke-width:2.78317332;stroke-miterlimit:4;stroke-opacity:1;stroke-dasharray:none" id="path3037-4-7-6" d="m -6.2755728,15.558912 a 4.6403885,4.6403885 0 1 1 -9.2807772,0 4.6403885,4.6403885 0 1 1 9.2807772,0 z" transform="matrix(0.29808451,0,0,0.29808451,9.4846938,1040.2185)"/><path style="fill:#474747;fill-opacity:1;stroke:none" id="path4047" d="m 5.6641236,1036.7454 3.9457924,-1.2085 0.085489,1.4914 z"/><path style="fill:#fff;fill-opacity:1;stroke:#474747;stroke-width:2.78317332;stroke-miterlimit:4;stroke-opacity:1;stroke-dasharray:none" id="path3037-4-7-6-8" d="m -6.2755728,15.558912 a 4.6403885,4.6403885 0 1 1 -9.2807772,0 4.6403885,4.6403885 0 1 1 9.2807772,0 z" transform="matrix(0.29808451,0,0,0.29808451,21.646887,1040.2627)"/><rect style="fill:#474747;fill-opacity:1;stroke:none" id="rect3841-9-0" width="5.967" height="3.063" x="8.156" y="1037.487"/></g></svg>