<svg xmlns="http://www.w3.org/2000/svg" xmlns:svg="http://www.w3.org/2000/svg" id="svg4460" width="24" height="24" version="1.1"><metadata id="metadata4465"/><g id="layer1" transform="translate(0,-1028.3622)"><rect style="fill:#474747;fill-opacity:1;stroke:none" id="rect3841-0" width="7.337" height="2.811" x="6.443" y="1042.548" ry=".688"/><rect style="fill:#474747;fill-opacity:1;stroke:#474747;stroke-width:1.22422004;stroke-linecap:round;stroke-linejoin:round;stroke-miterlimit:4;stroke-opacity:1;stroke-dasharray:none" id="rect3819" width="13.35" height="8.689" x="9.444" y="1036.064" ry=".424"/><rect style="fill:#474747;fill-opacity:1;stroke:none" id="rect3841" width="7.159" height="4.514" x="1.422" y="1040.846" ry=".022"/><path style="fill:#fff;fill-opacity:1;stroke:#474747;stroke-width:2.78317332;stroke-miterlimit:4;stroke-opacity:1;stroke-dasharray:none" id="path3037-4-7-6" d="m -6.2755728,15.558912 a 4.6403885,4.6403885 0 1 1 -9.2807772,0 4.6403885,4.6403885 0 1 1 9.2807772,0 z" transform="matrix(0.33204356,0,0,0.33204356,8.6540613,1040.1559)"/><path style="fill:none;stroke:#474747;stroke-width:1.20126379px;stroke-linecap:round;stroke-linejoin:round;stroke-opacity:1" id="path3839" d="m 1.2689962,1044.7756 2.0592761,0 0.1444046,-1.5623 1.007107,-0.5541 2.0851643,-0.2015 1.4083588,0.1156 -0.00959,-5.6085 c -1.1943357,0.021 -6.178957,-0.012 -6.6830157,-10e-5 -0.027605,3.0299 -0.00284,5.6084 -0.011699,7.8109 z"/><path style="fill:#fff;fill-opacity:1;stroke:#474747;stroke-width:2.78317332;stroke-miterlimit:4;stroke-opacity:1;stroke-dasharray:none" id="path3037-4-7-6-4" d="m -6.2755728,15.558912 a 4.6403885,4.6403885 0 1 1 -9.2807772,0 4.6403885,4.6403885 0 1 1 9.2807772,0 z" transform="matrix(0.33204356,0,0,0.33204356,19.798839,1040.1754)"/><path style="fill:#fff;fill-opacity:1;stroke:#474747;stroke-width:2.78317332;stroke-miterlimit:4;stroke-opacity:1;stroke-dasharray:none" id="path3037-4-7-6-8" d="m -6.2755728,15.558912 a 4.6403885,4.6403885 0 1 1 -9.2807772,0 4.6403885,4.6403885 0 1 1 9.2807772,0 z" transform="matrix(0.33204356,0,0,0.33204356,23.809213,1040.1754)"/><rect style="fill:#474747;fill-opacity:1;stroke:none" id="rect3841-8" width="2.341" height="4.514" x="5.515" y="1037.134" ry=".022"/></g></svg>